<!-- Nextcloud app ikonlari ACIK (beyaz) yazilir; parlak arka planda NC kendisi ters cevirir.
     Core yorumu: "Icons are bright so invert them if bright background is used".
     Siyah yazilirsa parlak header'da beyaza donup KAYBOLUR. Tek renk beyaz kalmali.
     NOT: XML yorumunda cift tire yasaktir, o yuzden CSS degisken adi buraya yazilamaz. -->
<svg xmlns="http://www.w3.org/2000/svg" viewBox="0 0 24 24" fill="none" stroke="#ffffff" stroke-width="2" stroke-linecap="round" stroke-linejoin="round">
  <path d="M4 5.5A1.5 1.5 0 0 1 5.5 4H10a2 2 0 0 1 2 2v13a1.5 1.5 0 0 0-1.5-1.5H5.5A1.5 1.5 0 0 1 4 16V5.5Z"/>
  <path d="M20 5.5A1.5 1.5 0 0 0 18.5 4H14a2 2 0 0 0-2 2v13a1.5 1.5 0 0 1 1.5-1.5h5A1.5 1.5 0 0 0 20 16V5.5Z"/>
</svg>
